<?xml version="1.0" encoding="UTF-8"?>
<!DOCTYPE svg PUBLIC "-//W3C//DTD SVG 1.1//EN" "http://www.w3.org/Graphics/SVG/1.1/DTD/svg11.dtd">
<!-- Creator: CorelDRAW 2019 (64-Bit) -->
<svg xmlns="http://www.w3.org/2000/svg" xml:space="preserve" width="105px" height="105px" version="1.1" style="shape-rendering:geometricPrecision; text-rendering:geometricPrecision; image-rendering:optimizeQuality; fill-rule:evenodd; clip-rule:evenodd"
viewBox="0 0 105 105"
 xmlns:xlink="http://www.w3.org/1999/xlink">
 <defs>
  <style type="text/css">
   <![CDATA[
    .fil0 {fill:#3E4241}
    .fil1 {fill:#B9DDDC;fill-rule:nonzero}
   ]]>
  </style>
 </defs>
 <g id="Слой_x0020_1">
  <metadata id="CorelCorpID_0Corel-Layer"/>
  <g id="_2171163631440">
   <rect class="fil0" x="2" y="3" width="100" height="100" rx="17.14" ry="21.43"/>
   <path class="fil1" d="M51.56 38.8l-5.84 5.55c-3.97,-4.19 -8.43,-6.28 -13.4,-6.28 -4.18,0 -7.72,1.43 -10.58,4.28 -2.88,2.86 -4.31,6.37 -4.31,10.56 0,2.91 0.64,5.51 1.91,7.76 1.27,2.27 3.07,4.04 5.38,5.34 2.33,1.28 4.91,1.92 7.75,1.92 2.42,0 4.64,-0.44 6.64,-1.35 2.01,-0.9 4.21,-2.55 6.61,-4.92l5.66 5.91c-3.23,3.16 -6.29,5.35 -9.16,6.57 -2.88,1.23 -6.17,1.84 -9.86,1.84 -6.8,0 -12.38,-2.15 -16.72,-6.47 -4.34,-4.31 -6.5,-9.85 -6.5,-16.58 0,-4.37 0.98,-8.24 2.97,-11.63 1.97,-3.4 4.79,-6.12 8.48,-8.18 3.68,-2.06 7.64,-3.1 11.89,-3.1 3.61,0 7.08,0.76 10.44,2.29 3.34,1.52 6.22,3.68 8.64,6.49z"/>
   <polygon id="1" class="fil1" points="55.54,31.12 64.11,31.12 75.11,62.21 86.32,31.12 94.86,31.12 79.06,74.88 71.02,74.88 "/>
  </g>
 </g>
</svg>
