<?xml version="1.0" encoding="UTF-8"?>
<!DOCTYPE svg PUBLIC "-//W3C//DTD SVG 1.1//EN" "http://www.w3.org/Graphics/SVG/1.1/DTD/svg11.dtd">
<!-- Creator: CorelDRAW 2019 (64-Bit) -->
<svg xmlns="http://www.w3.org/2000/svg" xml:space="preserve" width="25px" height="25px" version="1.1" style="shape-rendering:geometricPrecision; text-rendering:geometricPrecision; image-rendering:optimizeQuality; fill-rule:evenodd; clip-rule:evenodd"
viewBox="0 0 25 25"
 xmlns:xlink="http://www.w3.org/1999/xlink">
 <defs>
  <style type="text/css">
   <![CDATA[
    .fil0 {fill:#3E4241}
    .fil2 {fill:#3E4241;fill-rule:nonzero}
    .fil1 {fill:#FEFEFE;fill-rule:nonzero}
   ]]>
  </style>
 </defs>
 <g id="Слой_x0020_1">
  <metadata id="CorelCorpID_0Corel-Layer"/>
  <g id="_1546412487952">
   <polygon class="fil0" points="1.47,205.47 54.6,205.47 54.6,258.6 1.47,258.6 "/>
   <path class="fil1" d="M28.03 232.48c-2.75,0 -4.97,-2.22 -4.97,-4.97 0,-2.75 2.22,-4.97 4.97,-4.97 2.75,0 4.97,2.22 4.97,4.97 0,2.75 -2.22,4.97 -4.97,4.97zm0 -16.91c-6.9,0 -12.53,5.62 -12.53,12.53 0,6.91 12.53,20.41 12.53,20.41 0,0 12.53,-13.5 12.53,-20.41 0,-6.91 -5.59,-12.53 -12.53,-12.53z"/>
  </g>
  <path class="fil2" d="M15.98 16.33c-1.18,0 -2.15,-1.08 -2.15,-2.43 0,-1.33 0.95,-2.4 2.15,-2.4 1.23,0 2.18,1.09 2.18,2.4 0,1.35 -0.95,2.43 -2.18,2.43zm-7.97 0c-1.18,0 -2.15,-1.08 -2.15,-2.43 0,-1.33 0.95,-2.4 2.15,-2.4 1.22,0 2.17,1.09 2.17,2.4 0,1.35 -0.97,2.43 -2.17,2.43zm12.3 -10.95c-1.52,-0.72 -3.17,-1.22 -4.88,-1.52 -0.04,-0.02 -0.06,0 -0.08,0.02 -0.21,0.38 -0.44,0.87 -0.61,1.27 -1.84,-0.28 -3.67,-0.28 -5.49,0 -0.16,-0.4 -0.4,-0.89 -0.61,-1.27 -0.02,-0.02 -0.06,-0.02 -0.08,-0.02 -1.71,0.3 -3.36,0.8 -4.89,1.52 0,0 -0.03,0 -0.03,0.02 -3.12,4.64 -3.96,9.18 -3.54,13.65 0,0.02 0,0.04 0.02,0.06 2.07,1.52 4.05,2.43 5.99,3.04 0.04,0 0.06,0 0.09,-0.04 0.46,-0.62 0.88,-1.29 1.22,-1.99 0.02,-0.04 0,-0.08 -0.04,-0.1 -0.64,-0.25 -1.27,-0.55 -1.86,-0.89 -0.04,-0.04 -0.06,-0.1 -0.02,-0.12 0.13,-0.11 0.25,-0.22 0.38,-0.3 0.02,-0.02 0.04,-0.02 0.08,-0.02 3.93,1.79 8.17,1.79 12.05,0 0.04,0 0.06,0 0.08,0.02 0.13,0.09 0.26,0.19 0.38,0.3 0.05,0.02 0.05,0.08 0,0.12 -0.61,0.34 -1.22,0.64 -1.87,0.89 -0.05,0.02 -0.07,0.06 -0.05,0.1 0.36,0.7 0.76,1.35 1.23,1.99 0.02,0.04 0.04,0.04 0.08,0.04 1.96,-0.61 3.95,-1.52 5.99,-3.04 0.02,-0.02 0.04,-0.02 0.04,-0.06 0.51,-5.17 -0.84,-9.66 -3.54,-13.65 -0.02,-0.02 -0.02,-0.02 -0.04,-0.02l0 0z"/>
 </g>
</svg>
