<?xml version="1.0" encoding="UTF-8"?>
<!DOCTYPE svg PUBLIC "-//W3C//DTD SVG 1.1//EN" "http://www.w3.org/Graphics/SVG/1.1/DTD/svg11.dtd">
<!-- Creator: CorelDRAW 2019 (64-Bit) -->
<svg xmlns="http://www.w3.org/2000/svg" xml:space="preserve" width="50px" height="50px" version="1.1" style="shape-rendering:geometricPrecision; text-rendering:geometricPrecision; image-rendering:optimizeQuality; fill-rule:evenodd; clip-rule:evenodd"
viewBox="0 0 50 50"
 xmlns:xlink="http://www.w3.org/1999/xlink">
 <defs>
  <style type="text/css">
   <![CDATA[
    .fil0 {fill:#3E4241}
    .fil1 {fill:#FEFEFE}
    .fil3 {fill:#3E4241;fill-rule:nonzero}
    .fil2 {fill:#FEFEFE;fill-rule:nonzero}
    .fil4 {fill:white;fill-rule:nonzero}
   ]]>
  </style>
 </defs>
 <g id="Слой_x0020_1">
  <metadata id="CorelCorpID_0Corel-Layer"/>
  <g id="_2687700106416">
   <g id="_1546415429200">
    <polygon class="fil0" points="-120.16,118 -67.03,118 -67.03,171.12 -120.16,171.12 "/>
    <path class="fil1" d="M-79 151.78l-4.31 -4.31c-1.53,-1.53 -4.16,-0.91 -4.75,1.09 -0.47,1.38 -2,2.16 -3.41,1.84 -3.06,-0.78 -7.22,-4.78 -8,-8 -0.47,-1.4 0.47,-2.93 1.84,-3.4 2,-0.6 2.63,-3.22 1.1,-4.75l-4.32 -4.32c-1.25,-1.09 -3.09,-1.09 -4.15,0l-2.94 2.91c-2.91,3.09 0.31,11.25 7.56,18.47 7.22,7.25 15.38,10.63 18.47,7.56l2.91 -2.93c1.09,-1.22 1.09,-3.07 0,-4.16l0 0z"/>
   </g>
  </g>
  <g id="_1546412487952">
   <polygon class="fil0" points="13.97,217.97 67.1,217.97 67.1,271.1 13.97,271.1 "/>
   <path class="fil2" d="M40.53 244.98c-2.75,0 -4.97,-2.22 -4.97,-4.97 0,-2.75 2.22,-4.97 4.97,-4.97 2.75,0 4.97,2.22 4.97,4.97 0,2.75 -2.22,4.97 -4.97,4.97zm0 -16.91c-6.9,0 -12.53,5.62 -12.53,12.53 0,6.91 12.53,20.41 12.53,20.41 0,0 12.53,-13.5 12.53,-20.41 0,-6.91 -5.59,-12.53 -12.53,-12.53z"/>
  </g>
  <polygon class="fil3" points="39.72,12.77 10.28,12.77 25,27.77 "/>
  <polygon class="fil3" points="25,32.7 7.22,14.61 7.22,37.2 42.78,37.2 42.78,14.61 "/>
  <g id="_1546412505616">
   <polygon class="fil0" points="132.21,164.88 185.34,164.88 185.34,218.01 132.21,218.01 "/>
   <path class="fil4" d="M164.68 196.38c-1.75,0 -3.18,-1.59 -3.18,-3.59 0,-1.97 1.4,-3.57 3.18,-3.57 1.82,0 3.22,1.63 3.22,3.57 0,2 -1.4,3.59 -3.22,3.59zm-11.81 0c-1.75,0 -3.19,-1.59 -3.19,-3.59 0,-1.97 1.41,-3.57 3.19,-3.57 1.81,0 3.22,1.63 3.22,3.57 0,2 -1.44,3.59 -3.22,3.59zm18.22 -16.22c-2.25,-1.06 -4.69,-1.81 -7.22,-2.25 -0.06,-0.03 -0.09,0 -0.12,0.03 -0.32,0.56 -0.66,1.28 -0.91,1.88 -2.72,-0.41 -5.44,-0.41 -8.12,0 -0.26,-0.6 -0.6,-1.31 -0.91,-1.88 -0.03,-0.03 -0.09,-0.03 -0.13,-0.03 -2.53,0.44 -4.97,1.19 -7.25,2.25 0,0 -0.03,0 -0.03,0.03 -4.62,6.88 -5.87,13.6 -5.25,20.22 0,0.03 0,0.06 0.03,0.1 3.07,2.25 6,3.59 8.88,4.5 0.06,0 0.09,0 0.12,-0.07 0.69,-0.9 1.32,-1.9 1.82,-2.93 0.03,-0.07 0,-0.13 -0.07,-0.16 -0.93,-0.38 -1.87,-0.81 -2.74,-1.31 -0.07,-0.07 -0.1,-0.16 -0.04,-0.19 0.19,-0.16 0.38,-0.31 0.57,-0.44 0.03,-0.03 0.06,-0.03 0.12,-0.03 5.81,2.66 12.1,2.66 17.85,0 0.06,0 0.09,0 0.12,0.03 0.19,0.13 0.38,0.28 0.56,0.44 0.07,0.03 0.07,0.12 0,0.19 -0.9,0.5 -1.81,0.94 -2.78,1.31 -0.06,0.03 -0.09,0.09 -0.06,0.16 0.53,1.03 1.13,2 1.81,2.93 0.03,0.07 0.07,0.07 0.13,0.07 2.9,-0.91 5.84,-2.25 8.87,-4.5 0.03,-0.04 0.07,-0.04 0.07,-0.1 0.75,-7.65 -1.25,-14.31 -5.25,-20.22 -0.04,-0.03 -0.04,-0.03 -0.07,-0.03l0 0z"/>
  </g>
 </g>
</svg>
