<?xml version="1.0" encoding="UTF-8"?>
<!DOCTYPE svg PUBLIC "-//W3C//DTD SVG 1.1//EN" "http://www.w3.org/Graphics/SVG/1.1/DTD/svg11.dtd">
<!-- Creator: CorelDRAW 2019 (64-Bit) -->
<svg xmlns="http://www.w3.org/2000/svg" xml:space="preserve" width="80px" height="80px" version="1.1" style="shape-rendering:geometricPrecision; text-rendering:geometricPrecision; image-rendering:optimizeQuality; fill-rule:evenodd; clip-rule:evenodd"
viewBox="0 0 80 80"
 xmlns:xlink="http://www.w3.org/1999/xlink">
 <defs>
  <style type="text/css">
   <![CDATA[
    .fil0 {fill:#3E4241}
   ]]>
  </style>
 </defs>
 <g id="Слой_x0020_1">
  <metadata id="CorelCorpID_0Corel-Layer"/>
  <path class="fil0" d="M40 1.96c-21.54,0 -39,17.46 -39,39 0,17.23 11.17,31.85 26.67,37.01 1.94,0.38 2.57,-0.83 2.57,-1.86l0 -7.27c-10.85,2.36 -13.11,-4.61 -13.11,-4.61 -1.76,-4.5 -4.33,-5.71 -4.33,-5.71 -3.52,-2.41 0.28,-2.36 0.28,-2.36 3.92,0.27 5.99,4.02 5.99,4.02 3.47,5.97 9.1,4.23 11.34,3.25 0.36,-2.52 1.36,-4.25 2.47,-5.21 -8.66,-1.01 -17.77,-4.35 -17.77,-19.3 0,-4.25 1.52,-7.73 4.03,-10.47 -0.4,-0.98 -1.76,-4.93 0.38,-10.31 0,0 3.27,-1.04 10.72,4 3.12,-0.86 6.44,-1.31 9.76,-1.31 3.32,0 6.64,0.45 9.76,1.31 7.45,-5.04 10.72,-4 10.72,-4 2.14,5.38 0.78,9.33 0.38,10.31 2.52,2.74 4.03,6.22 4.03,10.47 0,15 -9.14,18.29 -17.82,19.25 1.41,1.21 2.69,3.6 2.69,7.22l0 10.72c0,1.03 0.61,2.24 2.59,1.86 15.5,-5.16 26.65,-19.78 26.65,-37.01 0,-21.54 -17.46,-39 -39,-39l0 0 0 0z"/>
 </g>
</svg>
