<?xml version="1.0" encoding="UTF-8"?>
<!DOCTYPE svg PUBLIC "-//W3C//DTD SVG 1.1//EN" "http://www.w3.org/Graphics/SVG/1.1/DTD/svg11.dtd">
<!-- Creator: CorelDRAW 2019 (64-Bit) -->
<svg xmlns="http://www.w3.org/2000/svg" xml:space="preserve" width="17px" height="17px" version="1.1" style="shape-rendering:geometricPrecision; text-rendering:geometricPrecision; image-rendering:optimizeQuality; fill-rule:evenodd; clip-rule:evenodd"
viewBox="0 0 17 17"
 xmlns:xlink="http://www.w3.org/1999/xlink">
 <defs>
  <style type="text/css">
   <![CDATA[
    .fil0 {fill:#3E4241}
    .fil1 {fill:#FEFEFE;fill-rule:nonzero}
    .fil2 {fill:white;fill-rule:nonzero}
   ]]>
  </style>
 </defs>
 <g id="Слой_x0020_1">
  <metadata id="CorelCorpID_0Corel-Layer"/>
  <g id="_1546412487952">
   <polygon class="fil0" points="-0.5,0.5 16.5,0.5 16.5,17.5 -0.5,17.5 "/>
   <path class="fil1" d="M8 9.14c-0.88,0 -1.59,-0.71 -1.59,-1.59 0,-0.88 0.71,-1.59 1.59,-1.59 0.88,0 1.59,0.71 1.59,1.59 0,0.88 -0.71,1.59 -1.59,1.59zm0 -5.41c-2.21,0 -4.01,1.8 -4.01,4.01 0,2.21 4.01,6.53 4.01,6.53 0,0 4.01,-4.32 4.01,-6.53 0,-2.21 -1.79,-4.01 -4.01,-4.01z"/>
  </g>
  <g id="_1546412507504">
   <polygon class="fil0" points="-54.99,23.39 -37.99,23.39 -37.99,40.4 -54.99,40.4 "/>
   <polygon class="fil1" points="-41.78,27.98 -51.2,27.98 -46.49,32.78 "/>
   <polygon class="fil1" points="-46.49,34.36 -52.18,28.57 -52.18,35.8 -40.8,35.8 -40.8,28.57 "/>
  </g>
  <g id="_1546412505616">
   <polygon class="fil0" points="-54.99,-3.9 -37.99,-3.9 -37.99,13.1 -54.99,13.1 "/>
   <path class="fil2" d="M-44.6 6.18c-0.56,0 -1.02,-0.51 -1.02,-1.15 0,-0.63 0.45,-1.14 1.02,-1.14 0.58,0 1.03,0.52 1.03,1.14 0,0.64 -0.45,1.15 -1.03,1.15zm-3.78 0c-0.56,0 -1.02,-0.51 -1.02,-1.15 0,-0.63 0.45,-1.14 1.02,-1.14 0.58,0 1.03,0.52 1.03,1.14 0,0.64 -0.46,1.15 -1.03,1.15zm5.83 -5.19c-0.72,-0.34 -1.5,-0.58 -2.31,-0.72 -0.02,-0.01 -0.03,0 -0.04,0.01 -0.1,0.18 -0.21,0.41 -0.29,0.6 -0.87,-0.13 -1.74,-0.13 -2.6,0 -0.08,-0.19 -0.19,-0.42 -0.29,-0.6 -0.01,-0.01 -0.03,-0.01 -0.04,-0.01 -0.81,0.14 -1.59,0.38 -2.32,0.72 0,0 -0.01,0 -0.01,0.01 -1.48,2.2 -1.88,4.35 -1.68,6.47 0,0.01 0,0.02 0.01,0.03 0.98,0.72 1.92,1.15 2.84,1.44 0.02,0 0.03,0 0.04,-0.02 0.22,-0.29 0.42,-0.61 0.58,-0.94 0.01,-0.02 0,-0.04 -0.02,-0.05 -0.3,-0.12 -0.6,-0.26 -0.88,-0.42 -0.02,-0.02 -0.03,-0.05 -0.01,-0.06 0.06,-0.05 0.12,-0.1 0.18,-0.14 0.01,-0.01 0.02,-0.01 0.04,-0.01 1.86,0.85 3.87,0.85 5.71,0 0.02,0 0.03,0 0.04,0.01 0.06,0.04 0.12,0.09 0.18,0.14 0.02,0.01 0.02,0.04 0,0.06 -0.29,0.16 -0.58,0.3 -0.89,0.42 -0.02,0.01 -0.03,0.03 -0.02,0.05 0.17,0.33 0.36,0.64 0.58,0.94 0.01,0.02 0.02,0.02 0.04,0.02 0.93,-0.29 1.87,-0.72 2.84,-1.44 0.01,-0.01 0.02,-0.01 0.02,-0.03 0.24,-2.45 -0.4,-4.58 -1.68,-6.47 -0.01,-0.01 -0.01,-0.01 -0.02,-0.01z"/>
  </g>
 </g>
</svg>
