<?xml version="1.0" encoding="UTF-8"?>
<!DOCTYPE svg PUBLIC "-//W3C//DTD SVG 1.1//EN" "http://www.w3.org/Graphics/SVG/1.1/DTD/svg11.dtd">
<!-- Creator: CorelDRAW 2019 (64-Bit) -->
<svg xmlns="http://www.w3.org/2000/svg" xml:space="preserve" width="17px" height="17px" version="1.1" style="shape-rendering:geometricPrecision; text-rendering:geometricPrecision; image-rendering:optimizeQuality; fill-rule:evenodd; clip-rule:evenodd"
viewBox="0 0 17 17"
 xmlns:xlink="http://www.w3.org/1999/xlink">
 <defs>
  <style type="text/css">
   <![CDATA[
    .fil0 {fill:#3E4241}
    .fil1 {fill:#FEFEFE}
   ]]>
  </style>
 </defs>
 <g id="Слой_x0020_1">
  <metadata id="CorelCorpID_0Corel-Layer"/>
  <g id="_1546415429200">
   <polygon class="fil0" points="-0.5,0.5 16.5,0.5 16.5,17.5 -0.5,17.5 "/>
   <path class="fil1" d="M12.67 11.31l-1.38 -1.38c-0.49,-0.49 -1.33,-0.29 -1.52,0.35 -0.15,0.44 -0.64,0.69 -1.09,0.59 -0.98,-0.25 -2.31,-1.53 -2.56,-2.56 -0.15,-0.45 0.15,-0.94 0.59,-1.09 0.64,-0.19 0.84,-1.03 0.35,-1.52l-1.38 -1.38c-0.4,-0.35 -0.99,-0.35 -1.33,0l-0.94 0.93c-0.93,0.99 0.1,3.6 2.42,5.91 2.31,2.32 4.92,3.4 5.91,2.42l0.93 -0.94c0.35,-0.39 0.35,-0.98 0,-1.33z"/>
  </g>
 </g>
</svg>
