<?xml version="1.0" encoding="UTF-8"?>
<!DOCTYPE svg PUBLIC "-//W3C//DTD SVG 1.1//EN" "http://www.w3.org/Graphics/SVG/1.1/DTD/svg11.dtd">
<!-- Creator: CorelDRAW 2019 (64-Bit) -->
<svg xmlns="http://www.w3.org/2000/svg" xml:space="preserve" width="32px" height="31px" version="1.1" style="shape-rendering:geometricPrecision; text-rendering:geometricPrecision; image-rendering:optimizeQuality; fill-rule:evenodd; clip-rule:evenodd"
viewBox="0 0 32 31"
 xmlns:xlink="http://www.w3.org/1999/xlink">
 <defs>
  <style type="text/css">
   <![CDATA[
    .fil0 {fill:#3E4241}
   ]]>
  </style>
 </defs>
 <g id="Слой_x0020_1">
  <metadata id="CorelCorpID_0Corel-Layer"/>
  <path class="fil0" d="M16 0.88c-8.56,0 -15.5,6.94 -15.5,15.5 0,6.85 4.44,12.66 10.6,14.71 0.77,0.15 1.02,-0.33 1.02,-0.74l0 -2.89c-4.31,0.94 -5.21,-1.83 -5.21,-1.83 -0.7,-1.79 -1.72,-2.27 -1.72,-2.27 -1.4,-0.96 0.11,-0.94 0.11,-0.94 1.56,0.11 2.38,1.6 2.38,1.6 1.38,2.37 3.62,1.68 4.51,1.29 0.14,-1 0.54,-1.69 0.98,-2.07 -3.44,-0.4 -7.06,-1.73 -7.06,-7.67 0,-1.69 0.6,-3.07 1.6,-4.16 -0.16,-0.39 -0.7,-1.96 0.15,-4.1 0,0 1.3,-0.41 4.26,1.59 1.24,-0.34 2.56,-0.52 3.88,-0.52 1.32,0 2.64,0.18 3.88,0.52 2.96,-2 4.26,-1.59 4.26,-1.59 0.85,2.14 0.31,3.71 0.15,4.1 1,1.09 1.6,2.47 1.6,4.16 0,5.96 -3.63,7.27 -7.08,7.65 0.56,0.48 1.07,1.43 1.07,2.87l0 4.26c0,0.41 0.24,0.89 1.03,0.74 6.16,-2.05 10.59,-7.86 10.59,-14.71 0,-8.56 -6.94,-15.5 -15.5,-15.5l0 0z"/>
 </g>
</svg>
