<?xml version="1.0" encoding="UTF-8"?>
<!DOCTYPE svg PUBLIC "-//W3C//DTD SVG 1.1//EN" "http://www.w3.org/Graphics/SVG/1.1/DTD/svg11.dtd">
<!-- Creator: CorelDRAW 2019 (64-Bit) -->
<svg xmlns="http://www.w3.org/2000/svg" xml:space="preserve" width="32px" height="31px" version="1.1" style="shape-rendering:geometricPrecision; text-rendering:geometricPrecision; image-rendering:optimizeQuality; fill-rule:evenodd; clip-rule:evenodd"
viewBox="0 0 32 31"
 xmlns:xlink="http://www.w3.org/1999/xlink">
 <defs>
  <style type="text/css">
   <![CDATA[
    .fil0 {fill:#3E4241}
   ]]>
  </style>
 </defs>
 <g id="Слой_x0020_1">
  <metadata id="CorelCorpID_0Corel-Layer"/>
  <path class="fil0" d="M12.85 17.21c1.26,-0.7 2,-0.44 2.86,-1.72 0.45,0.12 1.53,0.85 2.22,1.15 2.65,1.14 6.1,1.18 7.15,2.52 0.62,0.79 0.39,1.76 -0.21,2.34 -0.92,0.89 -5.05,1.8 -5.69,-2.58l-3.91 0.23c-0.6,-1.11 -1.28,-1.48 -2.42,-1.94zm-6.55 -3.1c-0.26,-0.45 -0.13,-3.76 -0.06,-4.1 0.7,-0.18 2.72,-0.19 3.27,0.07 0.89,0.04 1.51,0.36 1.81,1.06 0.29,0.71 0.16,1.6 -0.25,2.13 -0.86,1.07 -3.2,0.8 -4.77,0.84zm-5.8 11.86l5.68 0 0 -8.09c0.44,-0.11 0.79,-0.18 1.05,0.1 2.03,0.22 3.32,5.51 5.06,8.04l5.28 0c0.18,0.01 0.68,0.02 0.82,-0.02 0.3,-0.08 0.11,-0.07 0.29,-0.17 0.53,-0.29 3.5,0.53 6.62,-0.02 4.06,-0.72 6.86,-3.74 6.07,-7.61 -1.11,-5.43 -9.81,-4.96 -11.23,-6.32 -1.51,-1.46 1.41,-3.15 3.58,-1.89 1.05,0.61 1.01,1.51 1.35,2.09l5.72 -0.32c-0.02,-0.76 -0.29,-1.66 -0.61,-2.3 -0.98,-1.99 -2.66,-2.93 -5.06,-3.3 -1.62,-0.25 -3.57,-0.25 -5.22,-0.01 -0.77,0.11 -1.53,0.3 -2.2,0.56 -0.78,0.3 -1.25,0.74 -1.86,0.98 -1.23,-1.74 -4.25,-1.71 -6.86,-1.71 -2.82,0 -5.65,0 -8.47,0l-0.01 19.99z"/>
 </g>
</svg>
